<?xml version="1.0" encoding="UTF-8"?>
<!DOCTYPE svg PUBLIC "-//W3C//DTD SVG 1.1//EN" "http://www.w3.org/Graphics/SVG/1.1/DTD/svg11.dtd">
<!-- Creator: CorelDRAW X7 -->
<svg xmlns="http://www.w3.org/2000/svg" xml:space="preserve" width="1795px" height="638px" version="1.1" style="shape-rendering:geometricPrecision; text-rendering:geometricPrecision; image-rendering:optimizeQuality; fill-rule:evenodd; clip-rule:evenodd"
viewBox="0 0 1795 638"
 xmlns:xlink="http://www.w3.org/1999/xlink">
 <defs>
  <style type="text/css">
   <![CDATA[
    .fil1 {fill:#004279}
    .fil0 {fill:#CCCCCC;fill-rule:nonzero}
   ]]>
  </style>
 </defs>
 <g id="Layer_x0020_1">
  <metadata id="CorelCorpID_0Corel-Layer"/>
  <path class="fil0" d="M836 453c0,43 61,53 77,15 1,-5 2,-9 2,-15l0 -52 -16 0 0 49c0,35 -46,35 -46,0l0 -49 -17 0 0 52zm102 37l17 0 0 -28 20 0 18 28 21 0 -22 -32c32,-10 26,-57 -11,-57l-43 0 0 45 -10 0 0 16 10 0 0 28zm17 -74l24 0c23,0 23,30 0,30l-24 0 0 -30zm73 37c0,43 60,53 76,15 2,-5 3,-9 3,-15l0 -52 -17 0 0 49c0,35 -46,35 -46,0l0 -49 -16 0 0 52zm94 -8c0,52 74,64 92,16 4,-9 3,-15 3,-25l-48 0 0 16 30 0c-8,37 -60,29 -60,-7 0,-29 38,-42 55,-18l13 -10c-28,-35 -85,-16 -85,28zm110 8c0,43 61,53 76,15 2,-5 3,-9 3,-15l0 -52 -17 0 0 49c0,35 -46,35 -46,0l0 -49 -16 0 0 52zm89 37l18 0 6 -17 38 0 7 17 18 0 -38 -89 -37 0 0 15 21 0 -33 74zm30 -32l13 -32 13 32 -26 0zm78 32l17 0 0 -39 32 -50 -19 0 -21 34 -21 -34 -19 0 31 50 0 39z"/>
  <path class="fil1" d="M15 21c148,18 350,-36 417,67 45,68 -12,161 -70,183 54,59 109,124 173,187 70,68 183,157 314,108 -39,48 -128,45 -188,32 -125,-26 -211,-106 -292,-180 -19,-17 -38,-39 -59,-60 -30,-31 -49,-66 -108,-64 -4,42 -1,90 -2,134 -38,0 -77,0 -115,0 0,-80 0,-181 0,-272 0,-32 4,-66 -5,-85 -12,-24 -42,-22 -67,-28 0,-6 0,-12 0,-17 0,-3 0,-5 2,-5zm228 238c100,-5 120,-152 37,-181 -18,-7 -65,-12 -77,5 -10,14 -3,61 -3,85 0,33 0,59 0,88 16,2 31,4 43,3zm2 174c4,0 8,0 11,2 -15,36 -35,65 -81,67 -36,1 -79,-15 -110,-2 -18,7 -19,29 -41,27 13,-33 32,-62 71,-67 57,-8 126,24 150,-27zm18 70c-7,15 -12,25 -18,32 -31,31 -79,9 -125,17 -17,3 -23,20 -39,23 -2,-10 8,-23 15,-32 10,-10 27,-20 45,-21 41,-3 95,16 112,-20 5,0 7,-1 10,1zm-3 55c3,13 -8,25 -15,31 -22,17 -63,3 -87,13 -10,4 -11,14 -20,15 -2,-8 8,-23 17,-30 28,-22 88,4 103,-29 1,0 1,0 2,0zm1418 -269l-16 0 0 -24 16 0 0 -54 104 0 0 24 -79 0 0 30 55 0 0 24 -55 0 0 34 79 0 0 23 -104 0 0 -57zm-51 33c-43,53 -130,24 -130,-43 0,-67 87,-96 130,-43l-21 16c-25,-38 -83,-17 -83,27 0,44 57,64 84,28l20 15zm-265 -58l0 82 -25 0 0 -137 87 85 0 -83 25 0 0 138 -87 -85zm-149 -30l-31 0 0 -23 56 0 57 135 -26 0 -11 -25 -57 0 -10 25 -27 0 49 -112zm36 65l-19 -49 -20 49 39 0zm-213 -35l0 82 -25 0 0 -137 87 85 0 -83 25 0 0 138 -87 -85zm-219 15c0,-64 80,-93 124,-50 45,43 15,120 -51,120 -40,0 -73,-30 -73,-70zm27 0c0,40 48,62 78,33 37,-36 -5,-96 -49,-76 -18,8 -29,24 -29,43zm-166 28c26,29 72,21 72,-2 0,-30 -87,-1 -87,-56 0,-42 74,-56 110,-20l-19 17c-11,-11 -22,-16 -36,-16 -31,0 -35,23 -22,29 24,12 80,-1 80,45 0,45 -75,65 -117,20l19 -17zm-162 -18l-16 0 0 -24 16 0 0 -54 104 0 0 24 -79 0 0 30 55 0 0 24 -55 0 0 34 79 0 0 23 -104 0 0 -57z"/>
 </g>
</svg>
